<svg xmlns="http://www.w3.org/2000/svg" xmlns:svg="http://www.w3.org/2000/svg" id="svg8" width="100mm" height="100mm" version="1.1" viewBox="0 0 100 100"><metadata id="metadata5"/><g id="layer1" transform="translate(0,-197)"><rect style="fill:#d4ccff;fill-opacity:1;stroke:none;stroke-width:.26458332;stroke-opacity:1" id="rect4627" width="69.463" height="61.209" x="16.133" y="217.706"/><path style="fill:#d4ccff;fill-opacity:1;stroke:#000;stroke-width:5;stroke-miterlimit:4;stroke-dasharray:none;stroke-opacity:1" id="path3729" d="m 85.597846,217.64297 a 34.764835,8.3051548 0 0 1 -34.76484,8.30515 34.764835,8.3051548 0 0 1 -34.764829,-8.30515 34.764835,8.3051548 0 0 1 34.764829,-8.30516 34.764835,8.3051548 0 0 1 34.76484,8.30516 z"/><path style="fill:#d4ccff;fill-opacity:1;stroke:#000;stroke-width:5;stroke-miterlimit:4;stroke-dasharray:none;stroke-opacity:1" id="path3729-5" d="m 85.597846,260.31699 c 0,4.58681 -15.56475,8.30515 -34.76484,8.30515 -19.200082,0 -34.764829,-3.71834 -34.764829,-8.30515"/><path style="fill:#d4ccff;fill-opacity:1;stroke:#000;stroke-width:5;stroke-miterlimit:4;stroke-dasharray:none;stroke-opacity:1" id="path3729-5-1" d="m 85.595156,238.29022 c 0,4.58681 -15.56474,8.30515 -34.76483,8.30515 -19.200089,0 -34.764837,-3.71834 -34.764837,-8.30515"/><path style="fill:#d4ccff;fill-opacity:1;stroke:#000;stroke-width:5;stroke-miterlimit:4;stroke-dasharray:none;stroke-opacity:1" id="path3729-5-3" d="m 85.595156,278.91519 c 0,4.58681 -15.56474,8.30515 -34.76483,8.30515 -19.200089,0 -34.764837,-3.71834 -34.764836,-8.30515"/><path style="fill:none;stroke:#000;stroke-width:5;stroke-linecap:butt;stroke-linejoin:miter;stroke-miterlimit:4;stroke-dasharray:none;stroke-opacity:1" id="path4621" d="m 16.06549,278.91519 0.06704,-61.20875"/><path style="fill:none;stroke:#000;stroke-width:5;stroke-linecap:butt;stroke-linejoin:miter;stroke-miterlimit:4;stroke-dasharray:none;stroke-opacity:1" id="path4623" d="m 85.595156,278.91519 0.003,-61.27222"/></g></svg>