<svg xmlns="http://www.w3.org/2000/svg" xmlns:svg="http://www.w3.org/2000/svg" xmlns:xlink="http://www.w3.org/1999/xlink" id="svg11300" width="48" height="48" version="1.1"><defs id="defs3"><linearGradient id="linearGradient2250"><stop style="stop-color:#fff;stop-opacity:1" id="stop2252" offset="0"/><stop style="stop-color:#fff;stop-opacity:0" id="stop2254" offset="1"/></linearGradient><linearGradient id="linearGradient2265"><stop style="stop-color:#000;stop-opacity:1" id="stop2267" offset="0"/><stop style="stop-color:#000;stop-opacity:0" id="stop2269" offset="1"/></linearGradient><linearGradient id="linearGradient2257"><stop style="stop-color:#fff;stop-opacity:1" id="stop2259" offset="0"/><stop style="stop-color:#fff;stop-opacity:0" id="stop2261" offset="1"/></linearGradient><linearGradient id="linearGradient3087"><stop style="stop-color:#3465a4;stop-opacity:1" id="stop3089" offset="0"/><stop id="stop3095" offset="0" style="stop-color:#9fbce1;stop-opacity:1"/><stop style="stop-color:#6b95ca;stop-opacity:1" id="stop2242" offset="0"/><stop id="stop2244" offset=".75" style="stop-color:#3d6aa5;stop-opacity:1"/><stop style="stop-color:#386eb4;stop-opacity:1" id="stop3091" offset="1"/></linearGradient><linearGradient id="linearGradient3077"><stop style="stop-color:#98a0a9;stop-opacity:1" id="stop3079" offset="0"/><stop style="stop-color:#c3d0dd;stop-opacity:1" id="stop3081" offset="1"/></linearGradient><linearGradient id="linearGradient3061"><stop style="stop-color:#fff;stop-opacity:1" id="stop3063" offset="0"/><stop style="stop-color:#000;stop-opacity:1" id="stop3065" offset="1"/></linearGradient><linearGradient id="linearGradient3049"><stop style="stop-color:#b6b6b6;stop-opacity:1" id="stop3051" offset="0"/><stop id="stop2262" offset=".5" style="stop-color:#f2f2f2;stop-opacity:1"/><stop style="stop-color:#fafafa;stop-opacity:1" id="stop2264" offset=".676"/><stop id="stop2268" offset=".841" style="stop-color:#d8d8d8;stop-opacity:1"/><stop id="stop2266" offset=".875" style="stop-color:#f2f2f2;stop-opacity:1"/><stop style="stop-color:#dbdbdb;stop-opacity:1" id="stop3053" offset="1"/></linearGradient><linearGradient id="linearGradient3041"><stop style="stop-color:#000;stop-opacity:1" id="stop3043" offset="0"/><stop style="stop-color:#000;stop-opacity:0" id="stop3045" offset="1"/></linearGradient><radialGradient id="radialGradient3047" cx="24.813" cy="39.125" r="17.688" fx="24.813" fy="39.125" gradientTransform="matrix(1.000000,0.000000,0.000000,0.374558,7.194333e-15,24.47041)" gradientUnits="userSpaceOnUse" xlink:href="#linearGradient3041"/><linearGradient id="linearGradient3055" x1="19.648" x2="20.631" y1="42.254" y2="6.776" gradientTransform="matrix(-0.87827,0,0,0.87827,45.876397,4.967681)" gradientUnits="userSpaceOnUse" xlink:href="#linearGradient3049"/><linearGradient id="linearGradient3067" x1="50.153" x2="25.291" y1="-3.632" y2="-4.3" gradientTransform="matrix(0.87826988,0,0,0.87826988,-28.461247,36.32188)" gradientUnits="userSpaceOnUse" xlink:href="#linearGradient3061"/><linearGradient id="linearGradient3083" x1="38.228" x2="37.535" y1="13.603" y2="6.629" gradientTransform="matrix(0.878270,0.000000,0.000000,0.878270,2.847503,5.588712)" gradientUnits="userSpaceOnUse" xlink:href="#linearGradient3077"/><linearGradient id="linearGradient3093" x1="9.75" x2="16.915" y1="32.284" y2="39.443" gradientTransform="matrix(0.878270,0.000000,0.000000,0.878270,2.536988,4.967681)" gradientUnits="userSpaceOnUse" xlink:href="#linearGradient3087"/><linearGradient id="linearGradient2263" x1="12.005" x2="10.651" y1="35.688" y2="33.195" gradientTransform="matrix(1.007254,-2.636526e-2,2.636526e-2,1.007254,1.593411,7.919100e-2)" gradientUnits="userSpaceOnUse" xlink:href="#linearGradient2257"/><linearGradient id="linearGradient2271" x1="14.018" x2="15.416" y1="36.943" y2="38.268" gradientTransform="matrix(0.878099,-1.732370e-2,1.732370e-2,0.878099,2.163687,4.067899)" gradientUnits="userSpaceOnUse" xlink:href="#linearGradient2265"/><linearGradient id="linearGradient2256" x1="31.177" x2="40.859" y1="19.822" y2="9.657" gradientUnits="userSpaceOnUse" xlink:href="#linearGradient2250"/><radialGradient id="radialGradient2260" cx="24.813" cy="39.125" r="17.688" fx="24.813" fy="39.125" gradientTransform="matrix(1,0,0,0.374558,0,24.47041)" gradientUnits="userSpaceOnUse" xlink:href="#linearGradient3041"/></defs><metadata id="metadata4"/><g id="layer1"><path id="path2258" d="m 42.5,39.125 a 17.6875,6.625 0 1 1 -35.375,0 17.6875,6.625 0 1 1 35.375,0 z" transform="matrix(-0.751118,0,0,0.578703,31.372515,19.36341)" style="opacity:.19886367;color:#000;fill:url(#radialGradient2260);fill-opacity:1;fill-rule:nonzero;stroke:none;stroke-width:1;marker:none;visibility:visible;display:inline;overflow:visible"/><path style="color:#000;fill:url(#linearGradient3055);fill-opacity:1;fill-rule:nonzero;stroke:#888a85;stroke-width:.9999997;stroke-linecap:butt;stroke-linejoin:miter;stroke-miterlimit:4;stroke-opacity:1;stroke-dasharray:none;stroke-dashoffset:0;marker:none;visibility:visible;display:inline;overflow:visible" id="path2140" d="M 30.506672,21.215676 11.514083,40.6474 c -0.768486,0.87827 -3.20351,1.557061 -4.830485,0 C 5.112472,39.143787 5.475977,37.024536 7.012949,35.487563 L 25.237052,15.946056 c -2.25,-6.25 2.303889,-11.499568 8.178889,-10.374568 l 1.262514,1.1527294 -3.952215,3.7326476 -0.219568,3.293516 2.950842,2.693603 3.526399,-0.388144 3.622863,-3.403296 c 0,0 1.270122,1.254904 1.270122,1.254904 0.590763,5.641317 -5.307726,10.683228 -11.370226,7.308228 z"/><path id="path3057" d="M 30.296,19.9401 11.093118,39.967712 c -0.594907,0.679893 -2.479927,1.205365 -3.739414,0 -1.216253,-1.163989 -0.934853,-2.80456 0.25496,-3.994374 L 26.100196,16.352183 c -1.5,-6.5 1.858788,-10.0046375 6.858788,-9.8796375 l 0.270131,0.2733768 -3.602923,3.2362667 -0.130166,4.181794 3.613917,3.298483 4.242306,-0.458209 3.176582,-2.991481 0.352637,0.430059 C 41.193968,20.411585 34.38975,23.1276 30.296,19.9401 z" style="opacity:.42613639;color:#000;fill:none;stroke:#fff;stroke-width:.99999917;stroke-linecap:butt;stroke-linejoin:miter;stroke-miterlimit:4;stroke-opacity:1;stroke-dasharray:none;stroke-dashoffset:0;marker:none;visibility:visible;display:inline;overflow:visible"/><rect style="opacity:.17045456;color:#000;fill:none;stroke:url(#linearGradient3067);stroke-width:.99999708;stroke-linecap:butt;stroke-linejoin:miter;stroke-miterlimit:4;stroke-opacity:1;stroke-dasharray:none;stroke-dashoffset:0;marker:none;visibility:visible;display:inline;overflow:visible" id="rect3059" width="23.268" height="2.055" x="-5.604" y="32.053" rx=".884" ry=".884" transform="matrix(-0.69793809,0.7161581,0.7161581,0.69793809,0,0)"/><path style="color:#000;fill:#fff;fill-opacity:1;fill-rule:nonzero;stroke:#a1a1a1;stroke-width:1.13860166;stroke-linecap:butt;stroke-linejoin:miter;stroke-miterlimit:4;stroke-opacity:1;stroke-dasharray:none;stroke-dashoffset:0;marker:none;visibility:visible;display:inline;overflow:visible" id="path2146" d="m 43.25,37.5 a 1.375,1.375 0 1 1 -2.75,0 1.375,1.375 0 1 1 2.75,0 z" transform="matrix(-0.87827,0,0,0.87827,45.986181,5.077464)"/></g></svg>