<svg xmlns="http://www.w3.org/2000/svg" xmlns:svg="http://www.w3.org/2000/svg" xmlns:xlink="http://www.w3.org/1999/xlink" id="svg4520" width="48" height="48" version="1.1"><metadata id="metadata4526"/><defs id="defs4524"><linearGradient id="linearGradient6765"><stop id="stop6755" offset="0" style="stop-color:#8b8b8b;stop-opacity:0"/><stop style="stop-color:#8b8b8b;stop-opacity:.90196079" id="stop6757" offset=".173"/><stop style="stop-color:#919191;stop-opacity:.81176472" id="stop6759" offset=".437"/><stop id="stop6761" offset=".86" style="stop-color:#686868;stop-opacity:.85882354"/><stop id="stop6763" offset="1" style="stop-color:#676768;stop-opacity:0"/></linearGradient><linearGradient id="linearGradient6711"><stop style="stop-color:#ee3128;stop-opacity:0" id="stop6707" offset="0"/><stop id="stop6717" offset=".165" style="stop-color:#ee3128;stop-opacity:.90289611"/><stop id="stop6713" offset=".437" style="stop-color:#f26b31;stop-opacity:.81260645"/><stop style="stop-color:#1f65b0;stop-opacity:.85860306" id="stop6715" offset=".86"/><stop style="stop-color:#1f65b0;stop-opacity:0" id="stop6709" offset="1"/></linearGradient><linearGradient id="linearGradient6705" x1="10.349" x2="38.313" y1="16.467" y2="36.733" gradientUnits="userSpaceOnUse" xlink:href="#linearGradient6711"/><linearGradient id="linearGradient6705-6" x1="10.463" x2="37.284" y1="16.868" y2="35.99" gradientUnits="userSpaceOnUse" xlink:href="#linearGradient6765"/></defs><path style="fill:url(#linearGradient6705);fill-opacity:1;fill-rule:evenodd;stroke:none;stroke-width:1px;stroke-linecap:butt;stroke-linejoin:miter;stroke-opacity:1" id="path4528" d="m 24.190558,6.3098897 8.120707,7.9491433 4.289106,4.632234 1.830019,4.632235 C 39.584233,27.574886 39.083631,30.389002 37.85,34.2 37.636241,34.636259 36.227396,31.434486 35.6,31.95 20.69148,16.938535 34.787537,31.011408 17.95,14.3 l -1.193893,-3.2435 z"/><path style="fill:url(#linearGradient6705-6);fill-opacity:1;fill-rule:evenodd;stroke:none;stroke-width:1px;stroke-linecap:butt;stroke-linejoin:miter;stroke-opacity:1" id="path4528-8" d="m 33.641658,36.647818 -5.676687,3.517415 -5.66162,0.171564 -4.918175,-1.258137 -5.890372,-4.689423 -1.5440781,-4.803799 -0.6862569,-5.318491 1.20095,-3.488473 1.372514,-2.859404 1.819016,-1.809204 c 7.496871,7.823199 10.737468,10.676642 19.984709,20.537952 z"/><path id="path4518" d="m37.85 34.2-2.25-2.25q.6-1.2 1-2.85.4-1.65.4-2.85 0-2.5-1.1-4.95t-2.85-4.15L24 8.2l-6.05 6.1-2.15-2.15L24 4l11.25 11.1q2.2 2.2 3.475 5.1Q40 23.1 40 26.25q0 1.95-.6 4.075T37.85 34.2Zm2.45 11-6.5-6.5q-1.95 1.6-4.525 2.45Q26.7 42 24 42q-6.6 0-11.3-4.575Q8 32.85 8 26.25q0-2.85.85-5.3.85-2.45 2.65-4.55L2.85 7.75 5 5.6l37.45 37.45ZM24 39q2.3 0 4.275-.6 1.975-.6 3.425-1.85L13.65 18.5q-1.2 1.45-1.925 3.375Q11 23.8 11 26.25q0 5.35 3.825 9.05Q18.65 39 24 39Zm-1.3-12.1Zm5.1-4.8Z"/></svg>