<svg xmlns="http://www.w3.org/2000/svg" xmlns:svg="http://www.w3.org/2000/svg" xmlns:xlink="http://www.w3.org/1999/xlink" id="svg8217" width="16" height="16" version="1.1"><defs id="defs8219"><linearGradient id="linearGradient9290" x1="258.147" x2="269.322" y1="120.678" y2="134.902" gradientUnits="userSpaceOnUse"><stop offset="0" style="stop-color:#ffc2b2;stop-opacity:1" id="stop9292"/><stop offset=".068" style="stop-color:#ffb8a6;stop-opacity:1" id="stop9294"/><stop offset="1" style="stop-color:#f30;stop-opacity:1" id="stop9296"/></linearGradient><linearGradient id="linearGradient9278" x1="343.668" x2="332.009" y1="122.48" y2="108.939" gradientUnits="userSpaceOnUse"><stop offset="0" style="stop-color:#fff;stop-opacity:1" id="stop9280"/><stop offset=".043" style="stop-color:#f8f8f7;stop-opacity:1" id="stop9282"/><stop offset=".733" style="stop-color:#afafa2;stop-opacity:1" id="stop9284"/><stop offset=".903" style="stop-color:#81816d;stop-opacity:1" id="stop9286"/><stop offset="1" style="stop-color:#6f6f58;stop-opacity:1" id="stop9288"/></linearGradient><radialGradient id="radialGradient9298" cx="4.5" cy="5" r="9.773" fx="4.5" fy="5" gradientTransform="matrix(1.3813427,-1.5348209e-8,1.5348209e-8,1.3813427,-1.7160422,-1.9067133)" gradientUnits="userSpaceOnUse" xlink:href="#linearGradient9290"/><radialGradient id="radialGradient11187" cx="6" cy="6" r="11" fx="6" fy="6" gradientUnits="userSpaceOnUse" xlink:href="#linearGradient9290"/><linearGradient id="linearGradient12499" x1="5" x2="19" y1="4" y2="22" gradientUnits="userSpaceOnUse" xlink:href="#linearGradient9278"/></defs><metadata id="metadata8222"/><g id="layer1"><g id="g12521"><rect style="opacity:.15;color:#000;fill:#000;fill-opacity:1;fill-rule:nonzero;stroke:#000;stroke-width:.5;stroke-linecap:butt;stroke-linejoin:miter;stroke-miterlimit:4;stroke-opacity:1;stroke-dasharray:none;stroke-dashoffset:0;marker:none;visibility:visible;display:inline;overflow:visible;enable-background:accumulate" id="rect12501" width="13" height="13" x="1" y="1" ry="1.5"/><rect id="rect12524" width="13" height="13" x="1.1" y="1.1" style="opacity:.15;color:#000;fill:#000;fill-opacity:1;fill-rule:nonzero;stroke:#000;stroke-width:.80000001;stroke-linecap:butt;stroke-linejoin:miter;stroke-miterlimit:4;stroke-opacity:1;stroke-dasharray:none;stroke-dashoffset:0;marker:none;visibility:visible;display:inline;overflow:visible;enable-background:accumulate" ry="1.5"/><rect style="opacity:.15;color:#000;fill:#000;fill-opacity:1;fill-rule:nonzero;stroke:#000;stroke-width:1.10000002;stroke-linecap:butt;stroke-linejoin:miter;stroke-miterlimit:4;stroke-opacity:1;stroke-dasharray:none;stroke-dashoffset:0;marker:none;visibility:visible;display:inline;overflow:visible;enable-background:accumulate" id="rect12526" width="13" height="13" x="1.2" y="1.2" ry="1.5"/><rect id="rect12528" width="13" height="13" x="1.3" y="1.3" style="opacity:.15;color:#000;fill:#000;fill-opacity:1;fill-rule:nonzero;stroke:#000;stroke-width:1.39999998;stroke-linecap:butt;stroke-linejoin:miter;stroke-miterlimit:4;stroke-opacity:1;stroke-dasharray:none;stroke-dashoffset:0;marker:none;visibility:visible;display:inline;overflow:visible;enable-background:accumulate" ry="1.5"/></g><rect style="color:#000;fill:url(#radialGradient11187);fill-opacity:1;fill-rule:nonzero;stroke:#603b31;stroke-width:.30000001;stroke-linecap:butt;stroke-linejoin:miter;stroke-miterlimit:4;stroke-opacity:1;stroke-dasharray:none;stroke-dashoffset:0;marker:none;visibility:visible;display:inline;overflow:visible;enable-background:accumulate" id="rect11165" width="13" height="13" x="1" y="1" ry="1.5"/><path id="path9308" d="m 7.5,9.5 2,2 1,0 1,-1 0,-1 -2,-2 2,-2 0,-1 -1,-1 -1,0 -2,2 -2,-2 -1,0 -1,1 0,1 2,2 -2,2 0,1 1,1 1,0 z" style="fill:url(#linearGradient12499);fill-opacity:1;stroke:none"/><g id="g9333" style="opacity:.4"><path style="opacity:.4;fill:none;stroke:#000;stroke-width:.40000001;stroke-linecap:round;stroke-miterlimit:4;stroke-opacity:1;stroke-dasharray:none" id="path9331" d="m 10.875,3.875 -1,0 -2,2 -2,-2 -1,0 -1,1 0,1 2,2 -2,2 0,1"/><path style="opacity:.5;fill:none;stroke:#000;stroke-width:.40000001;stroke-linecap:round;stroke-miterlimit:4;stroke-opacity:1;stroke-dasharray:none" id="path9327" d="m 10.75,3.75 -1,0 -2,2 -2,-2 -1,0 -1,1 0,1 2,2 -2,2 0,1"/><path id="path9329" d="m 10.625,3.625 -1,0 -2,2 -2,-2 -1,0 -1,1 0,1 2,2 -2,2 0,1" style="fill:none;stroke:#000;stroke-width:.40000001;stroke-linecap:round;stroke-miterlimit:4;stroke-opacity:1;stroke-dasharray:none"/></g><path style="fill:none;stroke:#603b31;stroke-width:.40000001;stroke-linecap:round;stroke-miterlimit:4;stroke-opacity:1;stroke-dasharray:none" id="path9325" d="m 7.5,9.5 2,2 1,0 1,-1 0,-1 -2,-2 2,-2 0,-1 -1,-1 -1,0 -2,2 -2,-2 -1,0 -1,1 0,1 2,2 -2,2 0,1 1,1 1,0 z"/></g></svg>