<svg xmlns="http://www.w3.org/2000/svg" xmlns:svg="http://www.w3.org/2000/svg" xmlns:xlink="http://www.w3.org/1999/xlink" id="svg8217" width="16" height="16" version="1.1"><defs id="defs8219"><linearGradient id="linearGradient10298" gradientUnits="userSpaceOnUse"><stop id="stop10300" style="stop-color:#fff;stop-opacity:1" offset="0"/><stop id="stop10302" style="stop-color:#f8f8f7;stop-opacity:1" offset=".043"/><stop id="stop10304" style="stop-color:#afafa2;stop-opacity:1" offset="1"/></linearGradient><linearGradient id="linearGradient9552" gradientUnits="userSpaceOnUse"><stop id="stop9554" style="stop-color:#fff6d5;stop-opacity:1" offset="0"/><stop offset=".606" style="stop-color:#ffd42a;stop-opacity:1" id="stop9556"/><stop id="stop9558" style="stop-color:#fc0;stop-opacity:1" offset=".727"/><stop offset=".846" style="stop-color:#d4aa00;stop-opacity:1" id="stop9560"/><stop id="stop9562" style="stop-color:#806600;stop-opacity:1" offset="1"/></linearGradient><linearGradient id="linearGradient11808" x1="5" x2="19" y1="5" y2="22.5" gradientUnits="userSpaceOnUse" xlink:href="#linearGradient10298"/><radialGradient id="radialGradient11812" cx="6.5" cy="7" r="11.5" fx="6.5" fy="7" gradientUnits="userSpaceOnUse" xlink:href="#linearGradient9552"/></defs><metadata id="metadata8222"/><g id="layer1"><g id="g11818"><path id="path9570" d="m 7.4,2.4 1,0 6.245191,10.816987 -0.500001,0.866026 -12.4903805,0 -0.4999999,-0.866026 z" style="opacity:.15;color:#000;fill:#000;fill-opacity:1;fill-rule:nonzero;stroke:#000;stroke-width:1.39999998;stroke-linecap:butt;stroke-linejoin:round;stroke-miterlimit:4;stroke-opacity:1;stroke-dasharray:none;stroke-dashoffset:0;marker:none;visibility:visible;display:inline;overflow:visible;enable-background:accumulate"/><path style="opacity:.15;color:#000;fill:#000;fill-opacity:1;fill-rule:nonzero;stroke:#000;stroke-width:1.10000002;stroke-linecap:butt;stroke-linejoin:round;stroke-miterlimit:4;stroke-opacity:1;stroke-dasharray:none;stroke-dashoffset:0;marker:none;visibility:visible;display:inline;overflow:visible;enable-background:accumulate" id="path9568" d="m 7.3,2.3 1,0 6.245191,10.816987 -0.500001,0.866026 -12.4903805,0 -0.4999999,-0.866026 z"/><path id="path9566" d="m 7.2,2.2 1,0 6.245191,10.816987 -0.500001,0.866026 -12.4903805,0 -0.49999994,-0.866026 z" style="opacity:.15;color:#000;fill:#000;fill-opacity:1;fill-rule:nonzero;stroke:#000;stroke-width:.80000001;stroke-linecap:butt;stroke-linejoin:round;stroke-miterlimit:4;stroke-opacity:1;stroke-dasharray:none;stroke-dashoffset:0;marker:none;visibility:visible;display:inline;overflow:visible;enable-background:accumulate"/><path style="opacity:.15;color:#000;fill:#000;fill-opacity:1;fill-rule:nonzero;stroke:#000;stroke-width:.5;stroke-linecap:butt;stroke-linejoin:round;stroke-miterlimit:4;stroke-opacity:1;stroke-dasharray:none;stroke-dashoffset:0;marker:none;visibility:visible;display:inline;overflow:visible;enable-background:accumulate" id="path9564" d="m 7.1,2.1 1,0 6.245191,10.816987 -0.500001,0.866026 -12.4903805,0 -0.49999994,-0.866026 z"/></g><path style="color:#000;fill:url(#radialGradient11812);fill-opacity:1;fill-rule:nonzero;stroke:#a88a10;stroke-width:.30000000999999998;stroke-linecap:butt;stroke-linejoin:round;stroke-miterlimit:4;stroke-opacity:1;stroke-dasharray:none;stroke-dashoffset:0;marker:none;visibility:visible;display:inline;overflow:visible;enable-background:accumulate" id="path9508" d="m 7,2 1,0 6.245191,10.816987 -0.500001,0.866026 -12.4903805,0 -0.4999999,-0.866026 z"/><g id="g11830" style="opacity:.4"><path d="m 7.125,10.125 c 0,-1.5 -0.5,-2.25 -0.5,-3.25 0,-1 0.25,-2 1.25,-2 1,0 1.25,1 1.25,2 0,1 -0.5,1.75 -0.5,3.25 0,1 -1.5,1 -1.5,0 z m 1.75,1.75 c 0,0.552285 -0.447715,1 -1,1 -0.552285,0 -1,-0.447715 -1,-1 0,-0.552285 0.447715,-1 1,-1 0.552285,0 1,0.447715 1,1 z" style="opacity:.40000000000000002;color:#000;fill:none;stroke:#000;stroke-width:.40000001000000002;stroke-linecap:round;stroke-linejoin:miter;stroke-miterlimit:4;stroke-opacity:1;stroke-dasharray:none;stroke-dashoffset:0;marker:none;visibility:visible;display:inline;overflow:visible;enable-background:accumulate" id="path10424"/><path id="path10405" style="opacity:.5;color:#000;fill:none;stroke:#000;stroke-width:.40000001000000002;stroke-linecap:round;stroke-linejoin:miter;stroke-miterlimit:4;stroke-opacity:1;stroke-dasharray:none;stroke-dashoffset:0;marker:none;visibility:visible;display:inline;overflow:visible;enable-background:accumulate" d="M 7,10 C 7,8.5 6.5,7.75 6.5,6.75 c 0,-1 0.25,-2 1.25,-2 1,0 1.25,1 1.25,2 C 9,7.75 8.5,8.5 8.5,10 8.5,11 7,11 7,10 z m 1.75,1.75 c 0,0.552285 -0.447715,1 -1,1 -0.552285,0 -1,-0.447715 -1,-1 0,-0.552285 0.447715,-1 1,-1 0.552285,0 1,0.447715 1,1 z"/><path d="m 6.875,9.875 c 0,-1.5 -0.5,-2.25 -0.5,-3.25 0,-1 0.25,-2 1.25,-2 1,0 1.25,1 1.25,2 0,1 -0.5,1.75 -0.5,3.25 0,1 -1.5,1 -1.5,0 z m 1.75,1.75 c 0,0.552285 -0.447715,1 -1,1 -0.552285,0 -1,-0.447715 -1,-1 0,-0.552285 0.447715,-1 1,-1 0.552285,0 1,0.447715 1,1 z" style="opacity:.98999999000000005;color:#000;fill:none;stroke:#000;stroke-width:.40000001000000002;stroke-linecap:round;stroke-linejoin:miter;stroke-miterlimit:4;stroke-opacity:1;stroke-dasharray:none;stroke-dashoffset:0;marker:none;visibility:visible;display:inline;overflow:visible;enable-background:accumulate" id="path10357"/></g><path d="m 6.75,9.75 c 0,-1.5 -0.5,-2.25 -0.5,-3.25 0,-1 0.25,-2 1.25,-2 1,0 1.25,1 1.25,2 0,1 -0.5,1.75 -0.5,3.25 0,1 -1.5,1 -1.5,0 z M 8.5,11.5 c 0,0.552285 -0.447715,1 -1,1 -0.552285,0 -1,-0.447715 -1,-1 0,-0.552285 0.447715,-1 1,-1 0.552285,0 1,0.447715 1,1 z" style="color:#000;fill:url(#linearGradient11808);fill-opacity:1;fill-rule:nonzero;stroke:#b4b4a7;stroke-width:.30000001;stroke-miterlimit:4;stroke-opacity:.99215686;stroke-dasharray:none;marker:none;visibility:visible;display:inline;overflow:visible;enable-background:accumulate" id="path10274"/></g></svg>