<svg xmlns="http://www.w3.org/2000/svg" xmlns:svg="http://www.w3.org/2000/svg" xmlns:xlink="http://www.w3.org/1999/xlink" id="svg8217" width="16" height="16" version="1.1"><defs id="defs8219"><radialGradient id="radialGradient9955" gradientUnits="userSpaceOnUse"><stop offset="0" style="stop-color:#99d6ff;stop-opacity:1" id="stop9957"/><stop offset=".471" style="stop-color:#4ab7ff;stop-opacity:1" id="stop9959"/><stop offset=".827" style="stop-color:#15a1ff;stop-opacity:1" id="stop9961"/><stop offset="1" style="stop-color:#09f;stop-opacity:1" id="stop9963"/></radialGradient><linearGradient id="linearGradient10298" gradientUnits="userSpaceOnUse"><stop id="stop10300" style="stop-color:#fff;stop-opacity:1" offset="0"/><stop id="stop10302" style="stop-color:#f8f8f7;stop-opacity:1" offset=".043"/><stop id="stop10304" style="stop-color:#afafa2;stop-opacity:1" offset="1"/></linearGradient><radialGradient id="radialGradient12402" cx="4.5" cy="5" r="13.5" fx="4.5" fy="5" gradientUnits="userSpaceOnUse" xlink:href="#radialGradient9955"/><linearGradient id="linearGradient12406" x1="5" x2="20" y1="4" y2="23" gradientUnits="userSpaceOnUse" xlink:href="#linearGradient10298"/></defs><metadata id="metadata8222"/><g id="layer1"><g id="g9318"><path id="path9302" d="m 16,8.5 a 7.5,7.5 0 1 1 -15,0 7.5,7.5 0 1 1 15,0 z" style="opacity:.15;color:#000;fill:#000;fill-opacity:1;fill-rule:nonzero;stroke:none;stroke-width:.5;marker:none;visibility:visible;display:inline;overflow:visible;enable-background:accumulate"/><path style="opacity:.15;color:#000;fill:#000;fill-opacity:1;fill-rule:nonzero;stroke:none;stroke-width:.5;marker:none;visibility:visible;display:inline;overflow:visible;enable-background:accumulate" id="path9306" d="m 15.625,8.375 a 7.25,7.25 0 1 1 -14.5,0 7.25,7.25 0 1 1 14.5,0 z"/><path id="path9314" d="m 15.25,8.25 a 7,7 0 1 1 -14,0 7,7 0 1 1 14,0 z" style="opacity:.15;color:#000;fill:#000;fill-opacity:1;fill-rule:nonzero;stroke:none;stroke-width:.5;marker:none;visibility:visible;display:inline;overflow:visible;enable-background:accumulate"/><path style="opacity:.15;color:#000;fill:#000;fill-opacity:1;fill-rule:nonzero;stroke:none;stroke-width:.5;marker:none;visibility:visible;display:inline;overflow:visible;enable-background:accumulate" id="path9316" d="m 14.875,8.125 a 6.75,6.75 0 1 1 -13.5,0 6.75,6.75 0 1 1 13.5,0 z"/><path style="opacity:.15;color:#000;fill:#000;fill-opacity:1;fill-rule:nonzero;stroke:none;stroke-width:.5;marker:none;visibility:visible;display:inline;overflow:visible;enable-background:accumulate" id="path9300" d="m 14.5,8 a 6.5,6.5 0 1 1 -13,0 6.5,6.5 0 1 1 13,0 z"/></g><path style="color:#000;fill:url(#radialGradient12402);fill-opacity:1;fill-rule:nonzero;stroke:#2a4556;stroke-width:.30000000999999998;stroke-linecap:butt;stroke-linejoin:miter;stroke-miterlimit:4;stroke-opacity:1;stroke-dasharray:none;stroke-dashoffset:0;marker:none;visibility:visible;display:inline;overflow:visible;enable-background:accumulate" id="path5983" d="m 14.5,8 a 6.5,6.5 0 1 1 -13,0 6.5,6.5 0 1 1 13,0 z"/><g id="g10586" style="opacity:.4"><path id="path10072" style="color:#000;fill:none;stroke:#000;stroke-width:.40000001;stroke-miterlimit:4;stroke-opacity:.99215686;stroke-dasharray:none;marker:none;visibility:visible;display:inline;overflow:visible;enable-background:accumulate" d="m 5.875,13.375 0,-1.5 1,0 0,-4.75 -1,0 0,-1.25 3.5,0 0,6 1,0 0,1.5 z m 3.5,-9.25 c 0,0.6903559 -0.559644,1.25 -1.25,1.25 -0.690356,0 -1.25,-0.5596441 -1.25,-1.25 0,-0.6903559 0.559644,-1.25 1.25,-1.25 0.690356,0 1.25,0.5596441 1.25,1.25 z"/><path d="M 6,13.5 6,12 7,12 7,7.25 6,7.25 6,6 l 3.5,0 0,6 1,0 0,1.5 z M 9.5,4.25 C 9.5,4.9403559 8.940356,5.5 8.25,5.5 7.559644,5.5 7,4.9403559 7,4.25 7,3.5596441 7.559644,3 8.25,3 8.940356,3 9.5,3.5596441 9.5,4.25 z" style="opacity:.5;color:#000;fill:none;stroke:#000;stroke-width:.40000001;stroke-miterlimit:4;stroke-opacity:.99215686;stroke-dasharray:none;marker:none;visibility:visible;display:inline;overflow:visible;enable-background:accumulate" id="path10074"/><path d="m 6.125,13.625 0,-1.5 1,0 0,-4.75 -1,0 0,-1.25 3.5,0 0,6 1,0 0,1.5 z m 3.5,-9.25 c 0,0.6903559 -0.559644,1.25 -1.25,1.25 -0.690356,0 -1.25,-0.5596441 -1.25,-1.25 0,-0.6903559 0.559644,-1.25 1.25,-1.25 0.690356,0 1.25,0.5596441 1.25,1.25 z" style="opacity:.4;color:#000;fill:none;stroke:#000;stroke-width:.40000001;stroke-miterlimit:4;stroke-opacity:.99215686;stroke-dasharray:none;marker:none;visibility:visible;display:inline;overflow:visible;enable-background:accumulate" id="path10584"/></g><path id="path10274" style="color:#000;fill:url(#linearGradient12406);fill-opacity:1;fill-rule:nonzero;stroke:#b4b4a7;stroke-width:.30000001;stroke-miterlimit:4;stroke-opacity:.99215686;stroke-dasharray:none;marker:none;visibility:visible;display:inline;overflow:visible;enable-background:accumulate" d="m 5.75,13.25 0,-1.5 1,0 0,-4.75 -1,0 0,-1.25 3.5,0 0,6 1,0 0,1.5 z M 9.25,4 C 9.25,4.6903559 8.690356,5.25 8,5.25 7.309644,5.25 6.75,4.6903559 6.75,4 6.75,3.3096441 7.309644,2.75 8,2.75 8.690356,2.75 9.25,3.3096441 9.25,4 z"/></g></svg>